<mxfile host="app.diagrams.net" modified="2024-05-14T15:07:03.281Z" agent="Mozilla/5.0 (Windows NT 10.0; Win64; x64) AppleWebKit/537.36 (KHTML, like Gecko) Chrome/124.0.0.0 Safari/537.36 Edg/124.0.0.0" version="24.4.0" etag="k1K70JBtb2KgAFjOkFam" type="github">
  <diagram name="Page-1" id="WbiHJoP610lnfD932qam">
    <mxGraphModel>
      <root>
        <mxCell id="0" />
        <mxCell id="1" parent="0" />
      </root>
    </mxGraphModel>
  </diagram>
</mxfile>
